<svg width="26" height="26" viewBox="0 0 26 26" fill="none" xmlns="http://www.w3.org/2000/svg">
<path d="M13 0C9.6673 0.00950585 6.46554 1.29859 4.056 3.601V1.3C4.056 0.955218 3.91904 0.624558 3.67524 0.380761C3.43144 0.136964 3.10078 0 2.756 0C2.41122 0 2.08056 0.136964 1.83676 0.380761C1.59296 0.624558 1.456 0.955218 1.456 1.3V7.15C1.456 7.49478 1.59296 7.82544 1.83676 8.06924C2.08056 8.31303 2.41122 8.45 2.756 8.45H8.606C8.95078 8.45 9.28144 8.31303 9.52524 8.06924C9.76903 7.82544 9.906 7.49478 9.906 7.15C9.906 6.80522 9.76903 6.47456 9.52524 6.23076C9.28144 5.98696 8.95078 5.85 8.606 5.85H5.486C7.15751 4.10327 9.38535 2.99345 11.7865 2.71137C14.1876 2.42929 16.612 2.99257 18.6428 4.30436C20.6737 5.61615 22.184 7.59448 22.9142 9.89923C23.6444 12.204 23.5488 14.6911 22.6439 16.933C21.739 19.1749 20.0813 21.0315 17.9558 22.1836C15.8303 23.3357 13.3698 23.7112 10.9974 23.2457C8.62501 22.7802 6.4889 21.5027 4.95637 19.6328C3.42383 17.763 2.59062 15.4176 2.6 13C2.6 12.6552 2.46304 12.3246 2.21924 12.0808C1.97544 11.837 1.64478 11.7 1.3 11.7C0.955218 11.7 0.624558 11.837 0.380761 12.0808C0.136964 12.3246 0 12.6552 0 13C0 15.5712 0.762437 18.0846 2.19089 20.2224C3.61935 22.3602 5.64967 24.0265 8.02511 25.0104C10.4006 25.9944 13.0144 26.2518 15.5362 25.7502C18.0579 25.2486 20.3743 24.0105 22.1924 22.1924C24.0105 20.3743 25.2486 18.0579 25.7502 15.5362C26.2518 13.0144 25.9944 10.4006 25.0104 8.02511C24.0265 5.64967 22.3602 3.61935 20.2224 2.19089C18.0846 0.762437 15.5712 0 13 0ZM13 7.8C12.6552 7.8 12.3246 7.93696 12.0808 8.18076C11.837 8.42456 11.7 8.75522 11.7 9.1V13C11.7 13.3448 11.837 13.6754 12.0808 13.9192C12.3246 14.163 12.6552 14.3 13 14.3H15.6C15.9448 14.3 16.2754 14.163 16.5192 13.9192C16.763 13.6754 16.9 13.3448 16.9 13C16.9 12.6552 16.763 12.3246 16.5192 12.0808C16.2754 11.837 15.9448 11.7 15.6 11.7H14.3V9.1C14.3 8.75522 14.163 8.42456 13.9192 8.18076C13.6754 7.93696 13.3448 7.8 13 7.8Z" fill="#7D7676"/>
</svg>
