<svg width="28" height="28" viewBox="0 0 28 28" fill="none" xmlns="http://www.w3.org/2000/svg">
<g clip-path="url(#clip0_2303_19921)">
<path d="M8.22593 16.4748L5.75259 18.9505L9.05193 22.2498L22.2504 9.05018L18.9511 5.75201L16.4743 8.22535L18.1251 9.87501L16.4743 11.527L14.8246 9.87618L13.1749 11.527L14.8246 13.1767L13.1749 14.8263L11.5253 13.1767L9.87443 14.8263L11.5253 16.476L9.87443 18.1268L8.22593 16.4737V16.4748ZM19.7759 3.27634L24.7249 8.22535C24.9436 8.44413 25.0665 8.74082 25.0665 9.05018C25.0665 9.35954 24.9436 9.65623 24.7249 9.87501L9.8756 24.7243C9.65681 24.9431 9.36012 25.0659 9.05076 25.0659C8.7414 25.0659 8.44471 24.9431 8.22593 24.7243L3.27693 19.7753C3.05821 19.5566 2.93534 19.2599 2.93534 18.9505C2.93534 18.6412 3.05821 18.3445 3.27693 18.1257L18.1263 3.27634C18.345 3.05763 18.6417 2.93476 18.9511 2.93476C19.2605 2.93476 19.5571 3.05763 19.7759 3.27634ZM16.4743 21.4238L18.1251 19.7742L20.7408 22.391H22.3904V20.7413L19.7748 18.1245L21.4244 16.4748L24.5009 19.5502V24.5003H19.5519L16.4754 21.4238H16.4743ZM6.57626 11.5247L3.27576 8.22535C3.16729 8.11699 3.08124 7.98832 3.02253 7.84669C2.96381 7.70506 2.93359 7.55325 2.93359 7.39993C2.93359 7.24661 2.96381 7.0948 3.02253 6.95316C3.08124 6.81153 3.16729 6.68286 3.27576 6.57451L6.57626 3.27518C6.79504 3.05646 7.09174 2.93359 7.40109 2.93359C7.71045 2.93359 8.00715 3.05646 8.22593 3.27518L11.5276 6.57451L9.8756 8.22535L7.40109 5.74968L5.75143 7.40051L8.22593 9.87385L6.57626 11.5247Z" fill="white"/>
</g>
<defs>
<clipPath id="clip0_2303_19921">
<rect width="28" height="28" fill="white"/>
</clipPath>
</defs>
</svg>
